<svg version="1.1" viewBox="0 0 379.43852 379.43852" width="379.43854" height="379.43854">
  <path
    x="5e-07"
    y="5e-07"
    width="306.14001"
    height="306.14001"
    d="m 108.59506,37.025666 h 162.14 a 72,72 0 0 1 72,72.000004 v 162.14 a 72,72 0 0 1 -72,72 h -162.14 a 72,72 0 0 1 -71.999998,-72 v -162.14 A 72,72 0 0 1 108.59506,37.025666 Z"
    fill="#fff"
  />
  <g transform="translate(-192.77494,-271.66433)">
    <circle
      cx="334.04001"
      cy="399.32001"
      r="14.563"
      fill="#a4a4a4"
    />
    <circle
      cx="476.01001"
      cy="400.79999"
      r="14.563"
      fill="#a4a4a4"
    />
    <path
      d="m 427.18,415.83 26.214,97.087 -80.583,-1.9418"
      fill="none"
      stroke="#a4a4a4"
      stroke-linecap="round"
      stroke-linejoin="round"
      stroke-width="13.5"
    />
    <path
      d="m 359.22,557.57 100.97,3.8835"
      fill="none"
      stroke="#a4a4a4"
      stroke-linecap="round"
      stroke-width="13.5"
    />
  </g>
</svg>

